# xmcd
#
# Track frame offsets:
#	150
#	17240
#	32422
#	45012
#	57587
#	73102
#	84292
#	94507
#	109517
#	119815
#
# Disc length: 1763 seconds
#
# Revision: 1
# Processed by: cddbd v1.5.2PL0 Copyright (c) Steve Scherf et al.
# Submitted via: audiograbber 1.83.01
#
DISCID=7706e10a
DTITLE=Tommy Rogers - Class of 72
DYEAR=1989
DGENRE=Country
TTITLE0=Class of 72
TTITLE1=Home Away From Home
TTITLE2=Sixteen Yers
TTITLE3=Caroline
TTITLE4=Where Were You When I Needed You
TTITLE5=Turn The Night Around
TTITLE6=Plain Old Me
TTITLE7=All Those Lies
TTITLE8=Honky Tonker
TTITLE9=Just A Hurtin Place
EXTD=
EXTT0=
EXTT1=
EXTT2=
EXTT3=
EXTT4=
EXTT5=
EXTT6=
EXTT7=
EXTT8=
EXTT9=
PLAYORDER=
